<?xml version="1.0" encoding="iso-8859-1"?>
<!-- Generator: Adobe Illustrator 18.0.0, SVG Export Plug-In . SVG Version: 6.00 Build 0)  -->
<!DOCTYPE svg PUBLIC "-//W3C//DTD SVG 1.1//EN" "http://www.w3.org/Graphics/SVG/1.1/DTD/svg11.dtd">
<svg version="1.1" id="Capa_1" xmlns="http://www.w3.org/2000/svg" xmlns:xlink="http://www.w3.org/1999/xlink" x="0px" y="0px"
	 viewBox="0 0 350 350" style="enable-background:new 0 0 350 350;" xml:space="preserve">
<g>
	<path d="M41.909,301.853C41.897,298.971,41.884,301.041,41.909,301.853L41.909,301.853z"/>
	<path d="M307.935,298.397c-1.305-82.342-12.059-105.805-94.352-120.657c0,0-11.584,13.761-38.584,13.761
		s-38.586-13.761-38.586-13.761c-81.395,14.69-92.803,37.805-94.303,117.982c-0.123,6.547-0.18,6.891-0.202,6.131
		c0.005,1.424,0.011,4.058,0.011,8.651c0,0,19.592,39.496,133.08,39.496c113.486,0,133.08-39.496,133.08-39.496
		c0-2.951,0.002-5.003,0.006-6.399C308.062,304.575,308.017,303.664,307.935,298.397z"/>
	<path d="M308.086,304.104C308.123,303.315,308.097,298.63,308.086,304.104L308.086,304.104z"/>
	<path d="M175,171.173c13.805,0,26.67-4.84,37.541-13.173h79.119c-32.797-28.206-47.365-49.634-47.365-96.275
		C244.295,34,224.574,0,175,0s-69.297,34-69.297,61.725c0,46.641-14.566,68.069-47.365,96.275h79.119
		C148.328,166.333,161.195,171.173,175,171.173z"/>
</g>
<g>
</g>
<g>
</g>
<g>
</g>
<g>
</g>
<g>
</g>
<g>
</g>
<g>
</g>
<g>
</g>
<g>
</g>
<g>
</g>
<g>
</g>
<g>
</g>
<g>
</g>
<g>
</g>
<g>
</g>
</svg>
